Coordinates
version=1
nRows=11
nColumns=63
inDegrees=yes

Units are S.I. units (second, meters, Newtons, ...)
If the header above contains a line with 'inDegrees', this indicates whether rotational values are in degrees (yes) or radians (no).

endheader
time	pelvis_tilt	pelvis_list	pelvis_rotation	pelvis_tx	pelvis_ty	pelvis_tz	hip_flexion_r	hip_adduction_r	hip_rotation_r	knee_angle_r	knee_angle_r_beta	ankle_angle_r	subtalar_angle_r	mtp_angle_r	hip_flexion_l	hip_adduction_l	hip_rotation_l	knee_angle_l	knee_angle_l_beta	ankle_angle_l	subtalar_angle_l	mtp_angle_l	L5_S1_Flex_Ext	L5_S1_Lat_Bending	L5_S1_axial_rotation	L4_L5_Flex_Ext	L4_L5_Lat_Bending	L4_L5_axial_rotation	L3_L4_Flex_Ext	L3_L4_Lat_Bending	L3_L4_axial_rotation	L2_L3_Flex_Ext	L2_L3_Lat_Bending	L2_L3_axial_rotation	L1_L2_Flex_Ext	L1_L2_Lat_Bending	L1_L2_axial_rotation	L1_T12_Flex_Ext	L1_T12_Lat_Bending	L1_T12_axial_rotation	Abs_r3	Abs_r2	Abs_r1	Abs_t1	Abs_t2	neck_flexion	neck_bending	neck_rotation	arm_flex_r	arm_add_r	arm_rot_r	elbow_flex_r	pro_sup_r	wrist_flex_r	wrist_dev_r	arm_flex_l	arm_add_l	arm_rot_l	elbow_flex_l	pro_sup_l	wrist_flex_l	wrist_dev_l
      0.00000000	     -2.50118949	     -5.60638942	     99.70771503	      0.24570876	      0.85984884	      0.67242468	     -1.02365266	     -4.07783685	      4.01707114	      0.92605840	      0.01616277	     11.99262752	     -5.93472860	      0.00000000	      1.12566750	      4.16257692	     -6.63282833	      2.48248041	      0.04332746	     12.88089082	      2.50405019	      0.00000000	     -0.01185247	     -0.50604601	      1.68543909	     -0.02201122	     -0.67304120	      1.79077904	     -0.01947242	     -1.23040027	      1.79077904	     -0.01354619	     -1.23040027	      1.47475921	     -0.01100620	     -1.03192903	      1.36941926	     -0.00677250	     -0.78386527	      1.26407932	     -0.08466099	     -5.72449370	      9.37390660	      0.00000000	      0.00000000	      6.33397409	      0.50852285	     -2.67813375	      3.96810057	    -14.48763045	     23.95314694	     61.41666553	     86.15103969	      4.71444499	     11.24114088	     11.70076052	    -15.21662354	     31.33303910	     51.47711021	     84.71159340	     -3.96556767	      6.16599074
      0.02000000	     -2.18361651	     -4.72743186	     99.92541272	      0.24791428	      0.86143635	      0.66914195	     -1.95124377	     -3.42269594	      6.72411107	      0.57627693	      0.01005793	     12.04170853	     -9.67488417	      0.00000000	      0.43088730	      3.47091335	     -5.35656207	      3.22793170	      0.05633804	     13.44402221	      0.95298275	      0.00000000	     -0.04147976	     -0.48764645	      1.56593886	     -0.07703206	     -0.64856978	      1.66381004	     -0.06814710	     -1.18566359	      1.66381004	     -0.04740722	     -1.18566359	      1.37019650	     -0.03851811	     -0.99440865	      1.27232532	     -0.02370154	     -0.75536436	      1.17445414	     -0.29628578	     -5.51635422	      8.70928214	      0.00000000	      0.00000000	      5.06446521	      1.24310269	     -2.17229818	      4.34871052	    -14.70639961	     23.50382103	     60.76282473	     87.58705157	     -2.49151119	      8.80421225	     10.03633132	    -16.42971115	     31.07578298	     50.89398241	     83.43102024	     -5.59564988	      2.21077007
      0.04000000	     -1.91683380	     -4.19793018	    100.31999169	      0.24948963	      0.86241201	      0.66642852	     -2.52840338	     -2.90014706	      7.20444097	      0.45850905	      0.00800249	     12.26846943	    -10.74583902	      0.00000000	      0.15779432	      2.89379819	     -4.97741962	      4.01460973	      0.07006816	     14.05737760	      0.76817108	      0.00000000	     -0.05762190	     -0.47211903	      1.42880198	     -0.10700964	     -0.62791831	      1.51810211	     -0.09466703	     -1.14791021	      1.51810211	     -0.06585607	     -1.14791021	      1.25020174	     -0.05350770	     -0.96274513	      1.16090161	     -0.03292516	     -0.73131238	      1.07160149	     -0.41158750	     -5.34070489	      7.94656799	      0.00000000	      0.00000000	      4.36792532	      1.36977473	     -2.08441408	      3.95989760	    -14.49776602	     22.23191752	     59.50865575	     87.77554430	     -6.79902084	      7.00387401	      8.65418573	    -17.43611057	     30.65521912	     50.26212947	     83.54594363	     -6.44882896	      1.00109876
      0.06000000	     -1.72879655	     -3.87886104	    100.29853689	      0.25097885	      0.86280667	      0.66415610	     -2.89616802	     -2.57878332	      7.38630189	      0.39712114	      0.00693107	     12.41402577	    -10.53974580	      0.00000000	     -0.05194665	      2.50758885	     -5.10044847	      4.47172286	      0.07804629	     14.53160795	      0.59767349	      0.00000000	     -0.07454039	     -0.45743170	      1.33389582	     -0.13842895	     -0.60838416	      1.41726431	     -0.12246240	     -1.11219944	      1.41726431	     -0.08519221	     -1.11219944	      1.16715885	     -0.06921820	     -0.93279472	      1.08379036	     -0.04259238	     -0.70856170	      1.00042187	     -0.53243452	     -5.17455888	      7.41872841	      0.00000000	      0.00000000	      4.32844375	      1.16464055	     -2.10507339	      3.39027443	    -14.33158747	     20.92613679	     57.99080160	     86.96569702	     -7.66400330	      6.91317451	      7.46053784	    -18.42792527	     30.49677764	     49.49347515	     83.20362535	     -6.74646764	      1.22230315
      0.08000000	     -1.59926458	     -3.82600657	    101.14315205	      0.25153585	      0.86258874	      0.66219997	     -3.15581373	     -2.24001688	      7.04707660	      0.38074386	      0.00664523	     12.07845310	    -11.89104528	      0.00000000	      0.21881653	      2.14317509	     -4.81943582	      5.27360679	      0.09204180	     15.07263104	      1.44909760	      0.00000000	     -0.08639416	     -0.45704453	      1.13095139	     -0.16044259	     -0.60786923	      1.20163585	     -0.14193696	     -1.11125808	      1.20163585	     -0.09873988	     -1.11125808	      0.98958247	     -0.08022562	     -0.93200521	      0.91889801	     -0.04936562	     -0.70796198	      0.84821354	     -0.61710483	     -5.17017918	      6.29001235	      0.00000000	      0.00000000	      4.66945620	      0.58284657	     -2.58659330	      1.92472049	    -13.38245767	     18.27115518	     56.04275212	     86.34889558	     -8.90761458	      5.22793684	      6.19652916	    -19.23269324	     30.15544897	     48.97773085	     84.01260238	     -8.26699541	      2.88801607
      0.10000000	     -1.52286745	     -3.85375443	    101.53763991	      0.25198789	      0.86199615	      0.66059608	     -3.31347923	     -2.06239169	      6.59205947	      0.37808856	      0.00659889	     11.89494745	    -12.10590517	      0.00000000	      0.37431571	      1.95329204	     -4.87913372	      5.66662491	      0.09890126	     15.37499451	      1.87085710	      0.00000000	     -0.10416767	     -0.45079227	      0.96879383	     -0.19344978	     -0.59955372	      1.02934344	     -0.17113706	     -1.09605633	      1.02934344	     -0.11905323	     -1.09605633	      0.84769460	     -0.09673010	     -0.91925560	      0.78714499	     -0.05952141	     -0.69827723	      0.72659537	     -0.74405924	     -5.09945234	      5.38814064	      0.00000000	      0.00000000	      5.31270919	     -0.23238820	     -2.91950954	      0.89310840	    -12.76260660	     16.44915419	     53.73708991	     84.76293411	     -8.72354225	      4.95292256	      5.06814061	    -19.90869231	     30.08504024	     47.86255563	     84.13591650	     -8.87519876	      4.41726936
      0.12000000	     -1.42367614	     -4.09086589	    102.08472295	      0.25207964	      0.86070384	      0.65964462	     -3.25827528	     -1.91005446	      6.17192487	      0.38025369	      0.00663668	     11.51636030	    -12.70073373	      0.00000000	      0.84499334	      1.77548760	     -4.98779106	      6.16078262	      0.10752594	     15.74914588	      2.74207050	      0.00000000	     -0.11144920	     -0.44957562	      0.76884645	     -0.20697231	     -0.59793558	      0.81689935	     -0.18309989	     -1.09309817	      0.81689935	     -0.12737529	     -1.09309817	      0.67274064	     -0.10349173	     -0.91677461	      0.62468774	     -0.06368207	     -0.69639264	      0.57663484	     -0.79607049	     -5.08568936	      4.27609329	      0.00000000	      0.00000000	      6.30947235	     -0.71242463	     -3.43971191	      0.51762260	    -12.17366464	     14.93050297	     50.63215589	     83.02126170	     -7.42363182	      4.83309304	      4.00652583	    -20.61282519	     30.36543182	     46.43089226	     85.54298239	     -8.89985416	      6.37197534
      0.14000000	     -1.37093930	     -4.30577209	    102.14828076	      0.25238230	      0.85914205	      0.65892018	     -3.16021709	     -1.86366615	      6.02366414	      0.38149898	      0.00665841	     11.45673398	    -12.87400613	      0.00000000	      1.12151893	      1.72275577	     -5.00937456	      6.33153849	      0.11050619	     15.70407057	      2.76455367	      0.00000000	     -0.13334338	     -0.44182825	      0.63244227	     -0.24763200	     -0.58763157	      0.67196992	     -0.21906984	     -1.07426121	      0.67196992	     -0.15239815	     -1.07426121	      0.55338699	     -0.12382267	     -0.90097617	      0.51385935	     -0.07619241	     -0.68439196	      0.47433171	     -0.95245845	     -4.99804954	      3.51745420	      0.00000000	      0.00000000	      7.45704841	     -1.38089618	     -3.62791529	      0.82177667	    -11.81468438	     14.51053449	     47.14371543	     82.68559196	     -7.95125669	      5.08578248	      3.00025126	    -21.08673874	     31.07358326	     44.23454175	     86.11122308	     -8.66991599	      6.99647052
      0.16000000	     -1.31816096	     -4.56059527	    102.99179870	      0.25158152	      0.85731936	      0.65904829	     -3.04892382	     -1.80858822	      5.47311948	      0.38417436	      0.00670511	     11.74201155	    -13.43580554	      0.00000000	      1.63910661	      1.71350485	     -4.11235769	      6.75876478	      0.11796270	     15.77165899	      2.61595710	      0.00000000	     -0.16286795	     -0.43727737	      0.36818208	     -0.30246208	     -0.58157891	      0.39119346	     -0.26757576	     -1.06319621	      0.39119346	     -0.18614178	     -1.06319621	      0.32215932	     -0.15123918	     -0.89169602	      0.29914794	     -0.09306275	     -0.67734265	      0.27613656	     -1.16334950	     -4.94656912	      2.04771825	      0.00000000	      0.00000000	      8.62966239	     -1.71807298	     -3.87304534	      1.88166202	    -11.87440143	     16.01971794	     42.85520089	     82.09137730	     -9.14687134	      3.74885236	      2.32800175	    -21.58932304	     32.81746937	     41.52042011	     86.99174728	     -8.04440500	      6.55496175
      0.18000000	     -1.19942558	     -4.76213169	    103.34013948	      0.25081652	      0.85546466	      0.65951839	     -2.84413498	     -1.74714673	      5.26326008	      0.38265766	      0.00667864	     12.51070327	    -13.33776461	      0.00000000	      1.97190906	      1.77059298	     -2.28443923	      6.89263506	      0.12029918	     15.43496592	      0.47642557	      0.00000000	     -0.19302737	     -0.41430675	      0.21433648	     -0.35847114	     -0.55102798	      0.22773251	     -0.31712467	     -1.00734543	      0.22773251	     -0.22061098	     -1.00734543	      0.18754442	     -0.17924522	     -0.84485432	      0.17414839	     -0.11029584	     -0.64176115	      0.16075236	     -1.37877522	     -4.68672080	      1.19207519	      0.00000000	      0.00000000	      9.61517908	     -2.05463948	     -4.01807370	      3.29158167	    -12.44383326	     19.19255630	     38.75624602	     80.68326349	    -10.72400425	      3.63266520	      1.94924199	    -21.77617272	     35.88616507	     38.30278939	     87.08969309	     -8.44711469	      4.93459330
      0.20000000	     -1.08009990	     -4.94709327	    103.53964124	      0.25008564	      0.85370439	      0.66022048	     -2.56982118	     -1.68696975	      5.37729038	      0.36818098	      0.00642597	     13.40786193	    -13.37007801	      0.00000000	      2.29013401	      1.77011962	     -1.87244016	      7.03578526	      0.12279762	     15.49322215	     -0.01255733	      0.00000000	     -0.21505970	     -0.38963539	      0.11203655	     -0.39938737	     -0.51821507	      0.11903884	     -0.35332158	     -0.94735949	      0.11903884	     -0.24579173	     -0.94735949	      0.09803198	     -0.19970444	     -0.79454449	      0.09102970	     -0.12288511	     -0.60354522	      0.08402741	     -1.53614993	     -4.40763347	      0.62311370	      0.00000000	      0.00000000	     10.24633647	     -2.25614628	     -4.18671138	      4.49468776	    -12.66012789	     21.21046189	     34.68702720	     81.55113258	    -10.55694682	      4.59978813	      1.49041247	    -21.58481715	     38.18263238	     35.24933096	     87.67206408	     -7.95704334	      4.15416673
